<?xml version="1.0" encoding="utf-8"?>
<!-- Generator: Adobe Illustrator 19.1.0, SVG Export Plug-In . SVG Version: 6.00 Build 0)  -->
<svg version="1.1" id="Layer_1" xmlns="http://www.w3.org/2000/svg" xmlns:xlink="http://www.w3.org/1999/xlink" x="0px" y="0px"
	 viewBox="70 -104 172.7 240" style="enable-background:new 70 -104 172.7 240;" xml:space="preserve">
<style type="text/css">
	.st0{fill:url(#SVGID_1_);stroke:url(#SVGID_2_);stroke-miterlimit:10;}
</style>
<linearGradient id="SVGID_1_" gradientUnits="userSpaceOnUse" x1="80.4488" y1="-31.757" x2="240.2693" y2="128.0634">
	<stop  offset="0" style="stop-color:#009B3A"/>
	<stop  offset="7.146326e-02" style="stop-color:#56B226"/>
	<stop  offset="0.1371" style="stop-color:#9EC516"/>
	<stop  offset="0.1913" style="stop-color:#D2D30A"/>
	<stop  offset="0.2318" style="stop-color:#F2DC03"/>
	<stop  offset="0.2542" style="stop-color:#FEDF00"/>
	<stop  offset="0.3122" style="stop-color:#CEBC17"/>
	<stop  offset="0.3782" style="stop-color:#9E992D"/>
	<stop  offset="0.4481" style="stop-color:#737B40"/>
	<stop  offset="0.5208" style="stop-color:#506151"/>
	<stop  offset="0.5969" style="stop-color:#334C5E"/>
	<stop  offset="0.6776" style="stop-color:#1C3B69"/>
	<stop  offset="0.7651" style="stop-color:#0C3070"/>
	<stop  offset="0.8642" style="stop-color:#032975"/>
	<stop  offset="1" style="stop-color:#002776"/>
</linearGradient>
<linearGradient id="SVGID_2_" gradientUnits="userSpaceOnUse" x1="69.493" y1="16.0592" x2="243.5635" y2="16.0592">
	<stop  offset="0" style="stop-color:#009B3A"/>
	<stop  offset="0.5192" style="stop-color:#FEDF00"/>
	<stop  offset="1" style="stop-color:#002776"/>
</linearGradient>
<path class="st0" d="M203.2-27.2c1.3,1.3,1.3,4.4,4,2.5c3.1-2.1,3.8,0,4.2,2.4c0.9,5.5,1.8,11.1,2.8,17.5c7.4-4.8,2.4-12.9,6.3-18.6
	c2.3,5.8,1.9,11.7,2.7,17.3c0.3,2.1,0.1,4.3,0.4,6.5c0.7,4.8,3.9,7.2,8.7,7.1c1.3,0,2.6,0,4.2,0.5c-5.1,2.3-8,7-12.3,10.8
	c3.7,0.2,7.4,0.4,11.1,0.6c-5.6,2.3-2.3,5.7-1.8,9.1c0.8,5.1,4.8,5.3,8.4,6.7c-1.1,2.6-3.5,2.1-5.2,2.5c-8.3,2.3-9,6.7-10.5,15.7
	c-0.8,4.5-0.3,4.6-4.3,7.6c4.7,2.8,9.1,5.5,13.6,8.1c1.1,0.6,2.9,0.4,2.4,2.4c-0.4,1.5-1.5,2.2-2.9,2.4c-0.8,0.1-1.7,0.2-2.5,0.2
	c-7.5,0.1-8,0.7-4.9,7.7c-2.9-1.2-4.4-5.6-8.1-3.5c-2.6,1.5-4.9,3.4-7.2,5.4c-1.8,1.5-1.7,3.5-0.3,5.4c4.4,6.1,7.4,13,10.8,19.6
	c3.8,7.3,7,8.5,14.5,5.2c1.7-0.7,3.7-1.2,2.4-3.8c-0.4-0.9-0.3-2.2,1-2.3c1.2-0.1,1.4,1.2,1.6,2.2c3.1,15.1-3.3,24.4-18.1,25.8
	c-9.5,0.9-19.4,0.1-28.3-5.8c-5.1-3.3-10.8-6.5-17-8.1c-2.7-0.7-5.1-2.1-4.9-5.4c0.1-3.1,2.1-4.3,4.9-4.6c1-0.1,2.1-0.5,2.1-1.7
	c-0.1-1.5-1.5-1.6-2.6-1.9c-6.3-1.6-12.9-1-19.2-2.8c-3.7-1.1-7.5-1.7-10.8-3.7c-1.5-0.9-3.1-1.2-4.8-0.7c-2.3,0.6-3.5,1.3-2.1,4.1
	c4.2,8.5,3.4,10.3-5.5,13.5c-3.5,1.2-6.3,3.5-9.4,5.4c-13.6,8.7-27.7,14.1-41,5.9c-4.2-2.6-7.3-5.8-7.4-11.1c0-0.7,0.1-1.6-0.3-1.9
	c-5.8-5.2-0.9-9.7,1-14.3c3.4-8.3,5.5-17.1,11.4-24.3c2.6-3.2,0.2-7.9-4.5-7.8c-6.2,0.1-8.2-3-9.1-8.2C73.9,49,69.8,35.9,70,22.1
	c0.1-9.8,3.9-17.9,9.3-25.3c8.1-10.9,16.7-21.5,24.3-32.9c4-6,10.6-9.7,17.6-11.5c6.8-1.7,12.7-5.1,18.6-8.4
	c4.4-2.5,4.9-8.1,1.6-11.9c-3.1-3.5-4.5-7-0.6-10.9c1.7-1.7,1.1-4.1,1.2-6.2c0.2-5.2,1.5-10,5.3-13.6c4.7-4.4,10.1-6.9,16.4-4.4
	c7.4,3,12.6,8.1,13.4,16.5c0.4,3.8,0.3,7.4,2.8,10.8c2.1,3,0.5,6.1-2,8.5c-1.5,1.5-2.8,2.8-2.1,5.1c1.9,6.3-0.5,11.9-3.5,17.2
	c-6.9,12.4-12.2,25.6-18.9,38c-2.4,4.4-3.5,8.9-1.2,13.8c1.4,3.1-0.2,6.2-0.5,9.3c-0.1,1-0.3,3.2,1.3,2.2c3.9-2.4,3.3,0.1,3.2,2.4
	c-0.1,2.4,1.2,3.7,3.4,4.2c1,0.2,2,0.4,2.9,0.8c2.3,1.2,6.6,0.4,6.6,3.3c0,3.1-4.1,1.3-6.3,2.1c-1.4,0.5-3.2,0.9-2.9,2.8
	c0.3,1.9,2.2,1.8,3.7,1.7c3.4-0.2,6.9-1.4,10.6-0.1c-6.7,8.3-17.6,4-25.3,8.9c7.6,2.8,15.2-0.6,22.7-0.1c-0.3,1.7-2.6,1-2.7,3
	c2.4,1,4.8,0.3,7.1-0.3c1.9-0.5,3.9-0.8,5.9-0.9c2.1-0.1,6.7,3.1,5.3-3.3c-0.1-0.4,2.7-1.5,4.1-2.3c1.1-0.6,3-1,2.8-2.5
	c-0.2-1.8-2.1-0.9-3.3-1.2c-0.4-0.1-0.9-0.3-1.4-0.4c0.8-2.6,4.8-3.4,3.5-6.7c-1-2.5-3.5-1-5.8-1.3c2.3-3.4,8-4.5,7.2-8.8
	c-0.7-3.7-3.9-6.8-8.3-6.9c-0.1-1.9,1.9-1.6,2.2-3c-0.3-0.2-0.7-0.6-1.1-0.7c-1.8-0.3-3.7-0.3-5.4-0.8c-2.8-0.9-4.3-2.8-1-4.7
	c2.2-1.3,2.6-3.2,3-5.1c1.5-0.2,2,0.8,2.8,1.4c2.1,1.5,4.8,3.2,6.8,1.8c1.9-1.4-0.6-3.8-1.1-5.8c-0.3-1.3-2.2-2.7-0.6-4
	c1.3-1,2.8,0.4,4.2,0.9c1.8,0.7,3.6,2.6,5.5,1.3c2.3-1.6,0.5-4,0.1-6c-0.4-2.6-1-5.2-1.4-7.9c-0.4-2-0.3-1.8,1.9-3
	C204-23.7,202.1-25.6,203.2-27.2z M111.1,105.4c-0.1-0.3-0.1-0.6-0.2-0.9c4-1.4,8.1-2.9,12.1-4.3c3.1-1.1,3.6-3.4,3.6-6.3
	c0-3.1-1.3-4.6-4.1-5.4c-2.2-0.6-4.3-1.5-6.4-2.2c3.1-0.5,6-0.3,8.7-0.6c2.3-0.2,3.1-2.2,3.6-4.3c0.3-1.2-0.3-1.7-1.5-2.1
	c-6.2-1.8-12.4-2.2-18.9-1.2c-3.7,0.5-6.1,2.7-7.8,5.6c-3.9,6.7-5.6,14.1-6.5,21.8c-0.4,3.8,0.6,6.8,3,9.6c3.3,3.9,7.7,5.7,12.3,7.3
	c0.8,0.3,2.2,0.5,2.1-0.4c-0.3-4.5,4.6-5.3,5.9-8.7c1.1-3,2.4-6.4,2-8.9c-0.3-1.7-4.2,1.1-6.6,1.2
	C112.1,105.6,111.6,105.5,111.1,105.4z M119,18c0.9-4.6-1.4-9-4.7-11.2c-2.9-1.9-4.3,3.6-7,4.9c-0.6,0.3-1,0.9-1.5,1.3
	c-3.4,2.9-5,6.4-6.3,10.8c-1.9,6.4-3.1,12.2-1.7,18.9c0.8,3.8,2.3,7.2,3.6,10.7c0.7,1.9,6.7,2.3,6.9,0.7c0.6-5.7,4.3-3.6,7.3-3.5
	c1,0,2.5-0.1,2.5-1.1c0-3.9,3.2-8,0.6-11.5c-3.2-4.2-3-8.2-1.1-12.6C118.7,23.2,119.1,20.8,119,18z M208,58.1c6.6,2,9,0.2,10-6.5
	c1.3-8.4-0.4-16.3-1.5-24.5c-1-7.4-5.8-11.2-10.2-15.8c-0.8-0.8-2.2-1.7-2.8,0.1c-2.3,6.5-7.1,12.1-5.6,20.1
	c0.9,4.6,0.6,9.8-1.5,14.5c-1.6,3.6,1,6.6,2.6,9.2c1.6,2.6,4.1-0.1,6.2-0.7c2.2-0.7,4-2.6,6.7-2.2C211.8,55.3,208.6,55.8,208,58.1z
	 M134.1-44.5c-1.7,7.9-3.3,15.5-5.1,23.2c-0.9,4-0.2,7.9,0.8,11.8c0.3,1.2,0.4,3,2,3c1.7,0,1.5-1.9,1.9-3.1
	c3.2-10.3,2.6-20.9,2.4-31.5C136-42.1,136.4-43.4,134.1-44.5z M122.4-16.4c4.6-8,6.6-15.6,7.9-23.5c0.3-2.1-0.8-3.9-3.3-2.7
	c-3.8,1.9-7,4.6-8.4,8.8c-0.3,1-0.7,2,0.5,2.6c1.1,0.5,1.9-0.1,2.5-1c0.8-1.3,0.7-3.2,3.3-4C124.3-29.6,121.5-23.9,122.4-16.4z
	 M156.2,69c2.1,0,4.3,0.1,6.4,0c1.5-0.1,3.3-0.1,3.1-2.2c-0.2-2.2-1.9-2.6-3.7-2.2c-5.5,1.3-10.4,0.6-14.8-3.3
	c-1.3-1.1-3.1-1.3-4.7-0.3c-1.4,1-1.4,2.5-1.2,4c0.3,2,1.7,2.7,3.4,3C148.7,68.7,152.4,69.1,156.2,69z M194.2,57.6
	c-5.1-0.7-9.2,0.3-13.3,1c-2,0.3-5.2,0.1-4.3,3.9c1,4.2,3.5,5.5,7.3,4.3C188.3,65.3,190.5,61.4,194.2,57.6z"/>
</svg>
